<svg width="16" height="16" viewBox="0 0 16 16" fill="none" xmlns="http://www.w3.org/2000/svg">
<path d="M8.00147 1.44089C10.1394 1.44089 10.3925 1.45027 11.2333 1.48777C12.0147 1.52215 12.4367 1.65343 12.718 1.76282C13.0899 1.9066 13.3587 2.08163 13.6369 2.35981C13.9182 2.64111 14.0901 2.90678 14.2339 3.27873C14.3433 3.56003 14.4745 3.9851 14.5089 4.76337C14.5464 5.60728 14.5558 5.86045 14.5558 7.99521C14.5558 10.1331 14.5464 10.3863 14.5089 11.2271C14.4745 12.0085 14.3433 12.4304 14.2339 12.7117C14.0901 13.0836 13.915 13.3524 13.6369 13.6306C13.3556 13.9119 13.0899 14.0838 12.718 14.2276C12.4367 14.337 12.0116 14.4683 11.2333 14.5027C10.3894 14.5402 10.1362 14.5495 8.00147 14.5495C5.86357 14.5495 5.6104 14.5402 4.76962 14.5027C3.98823 14.4683 3.56628 14.337 3.28498 14.2276C2.91303 14.0838 2.64423 13.9088 2.36606 13.6306C2.08476 13.3493 1.91285 13.0836 1.76907 12.7117C1.65968 12.4304 1.52841 12.0053 1.49402 11.2271C1.45652 10.3832 1.44714 10.13 1.44714 7.99521C1.44714 5.85732 1.45652 5.60415 1.49402 4.76337C1.52841 3.98198 1.65968 3.56003 1.76907 3.27873C1.91285 2.90678 2.08788 2.63798 2.36606 2.35981C2.64736 2.07851 2.91303 1.9066 3.28498 1.76282C3.56628 1.65343 3.99136 1.52215 4.76962 1.48777C5.6104 1.45027 5.86357 1.44089 8.00147 1.44089ZM8.00147 0C5.82919 0 5.55727 0.00937672 4.70399 0.0468836C3.85383 0.0843905 3.26935 0.221916 2.76301 0.418827C2.23478 0.625114 1.78783 0.897039 1.344 1.344C0.897039 1.78783 0.625115 2.23478 0.418827 2.75988C0.221916 3.26935 0.0843905 3.8507 0.0468836 4.70086C0.00937672 5.55727 0 5.82919 0 8.00147C0 10.1737 0.00937672 10.4457 0.0468836 11.2989C0.0843905 12.1491 0.221916 12.7336 0.418827 13.2399C0.625115 13.7681 0.897039 14.2151 1.344 14.6589C1.78783 15.1028 2.23478 15.3778 2.75988 15.581C3.26935 15.7779 3.85071 15.9154 4.70086 15.9529C5.55414 15.9904 5.82607 15.9998 7.99834 15.9998C10.1706 15.9998 10.4425 15.9904 11.2958 15.9529C12.146 15.9154 12.7305 15.7779 13.2368 15.581C13.7619 15.3778 14.2089 15.1028 14.6527 14.6589C15.0965 14.2151 15.3716 13.7681 15.5747 13.2431C15.7716 12.7336 15.9092 12.1522 15.9467 11.3021C15.9842 10.4488 15.9936 10.1769 15.9936 8.00459C15.9936 5.83232 15.9842 5.56039 15.9467 4.70711C15.9092 3.85696 15.7716 3.27247 15.5747 2.76613C15.3778 2.23478 15.1059 1.78783 14.6589 1.344C14.2151 0.900165 13.7681 0.625114 13.2431 0.421952C12.7336 0.225041 12.1522 0.087516 11.3021 0.0500092C10.4457 0.00937672 10.1737 0 8.00147 0Z" fill="#6D6E76"/>
</svg>
