<svg width="16" height="13" viewBox="0 0 16 13" fill="none" xmlns="http://www.w3.org/2000/svg">
<path d="M5.03325 13C11.0693 13 14.3716 7.99799 14.3716 3.66159C14.3716 3.52097 14.3685 3.37723 14.3623 3.23661C15.0047 2.77203 15.5591 2.19658 15.9994 1.5373C15.4011 1.80349 14.7659 1.97734 14.1154 2.0529C14.8003 1.64237 15.3131 0.997432 15.5588 0.237657C14.9145 0.619503 14.2099 0.888863 13.4751 1.03419C12.9801 0.508176 12.3255 0.159893 11.6127 0.0431873C10.8998 -0.0735185 10.1684 0.0478534 9.53147 0.388538C8.89453 0.729223 8.38755 1.27024 8.08893 1.92796C7.7903 2.58567 7.71666 3.32344 7.87939 4.0272C6.57475 3.96173 5.29843 3.62282 4.13317 3.03244C2.96791 2.44206 1.93972 1.61339 1.11527 0.600144C0.69624 1.3226 0.568016 2.1775 0.756659 2.9911C0.945301 3.8047 1.43665 4.51595 2.13086 4.98029C1.60969 4.96375 1.09994 4.82343 0.643726 4.57093V4.61156C0.643259 5.36972 0.905365 6.10465 1.38549 6.69142C1.86561 7.27818 2.53412 7.68057 3.27738 7.83018C2.7946 7.96228 2.2879 7.98152 1.7965 7.88643C2.00623 8.53846 2.41429 9.10874 2.96374 9.51769C3.51318 9.92663 4.17659 10.1538 4.86138 10.1676C3.69881 11.0808 2.2627 11.5761 0.784346 11.5738C0.522172 11.5734 0.260256 11.5573 0 11.5257C1.50185 12.4892 3.2489 13.0009 5.03325 13Z" fill="#6D6E76"/>
</svg>
